<svg xmlns="http://www.w3.org/2000/svg" width="15.42" height="14.148" viewBox="0 0 15.42 14.148"><defs><style>.a{fill:#99a0b0;opacity:0.47;}</style></defs><path class="a" d="M3184.179,1266a4.54,4.54,0,0,1-6.939,0,4.2,4.2,0,0,0-4.241,4.24c0,2.914,2.622,5.289,6.593,8.9l1.117,1.01,1.118-1.018c3.97-3.6,6.592-5.976,6.592-8.89A4.2,4.2,0,0,0,3184.179,1266Zm-3.393,11.99-.077.078-.077-.078c-3.669-3.324-6.091-5.52-6.091-7.749a2.635,2.635,0,0,1,2.7-2.7,3.013,3.013,0,0,1,2.752,1.82h1.442a3,3,0,0,1,2.745-1.82,2.635,2.635,0,0,1,2.7,2.7C3186.878,1272.469,3184.457,1274.666,3180.787,1277.99Z" transform="translate(-3173 -1266)"/></svg>