<svg xmlns="http://www.w3.org/2000/svg" width="59" height="58" viewBox="0 0 59 58"><defs><style>.a{fill:#054aa5;opacity:0.17;}.b{fill:#ffd33a;}.c{fill:#ea9f26;}.d{fill:#f2c837;}</style></defs><g transform="translate(-21 -133)"><ellipse class="a" cx="29.5" cy="29" rx="29.5" ry="29" transform="translate(21 133)"/><g transform="translate(-4.952 121.158)"><path class="b" d="M228.082,112.269v-3.7a1.181,1.181,0,0,0-.6-1.026L219.813,104h-3.544l-7.674,3.544a1.181,1.181,0,0,0-.6,1.026v3.7a1.181,1.181,0,0,0,1.181,1.181,1.181,1.181,0,0,0,0,2.363,1.181,1.181,0,0,0,0,2.363,1.181,1.181,0,0,0,0,2.363,1.181,1.181,0,0,0,0,2.363,1.181,1.181,0,0,0,0,2.363,1.181,1.181,0,0,0,0,2.363A1.181,1.181,0,0,0,208,128.808v1.181a2.363,2.363,0,0,0,2.363,2.363H225.72a2.363,2.363,0,0,0,2.363-2.363v-1.181a1.181,1.181,0,0,0-1.181-1.181,1.181,1.181,0,1,0,0-2.363,1.181,1.181,0,1,0,0-2.363,1.181,1.181,0,1,0,0-2.363,1.181,1.181,0,1,0,0-2.363,1.181,1.181,0,1,0,0-2.363,1.181,1.181,0,1,0,0-2.363A1.181,1.181,0,0,0,228.082,112.269Z" transform="translate(-162.369 -74.093)"/><path class="c" d="M313.181,24h2.363a1.181,1.181,0,0,1,1.181,1.181v2.363H312V25.181A1.181,1.181,0,0,1,313.181,24Z" transform="translate(-258.691 0)"/><g transform="translate(53.9 27.544)"><path class="d" d="M320,72h3.544v2.363H320Z" transform="translate(-320 -72)"/></g><path class="c" d="M240,224h15.357v10.632H240Z" transform="translate(-192.006 -185.234)"/><path class="d" d="M321.772,264l-.431.766c-.295.523-.75,1.006-1.03,1.494a1.8,1.8,0,0,0-.311.889,1.785,1.785,0,0,0,3.544,0,1.8,1.8,0,0,0-.311-.889c-.279-.489-.735-.971-1.03-1.494Z" transform="translate(-266.1 -222.28)"/></g></g></svg>