<svg xmlns="http://www.w3.org/2000/svg" width="59" height="58" viewBox="0 0 59 58"><defs><style>.a{fill:#054aa5;opacity:0.17;}.b{fill:#e56353;}.c{fill:#d15241;}.d{fill:#ebf0f3;}</style></defs><g transform="translate(-21 -133)"><ellipse class="a" cx="29.5" cy="29" rx="29.5" ry="29" transform="translate(21 133)"/><g transform="translate(34.337 145.784)"><path class="b" d="M22.33,11.945c-2.527-1.38-2.395-4.411-2.489-6.964l-.983,2.1-.706-1.55L17.73,6.657l-1.468-.63s2.8,3.561-.4,5.905c-5.111.863-8.873,3.743-8.873,7.165,0,4.109,5.407,7.436,12.075,7.436S31.141,23.207,31.141,19.1C31.141,15.688,27.41,12.821,22.33,11.945Z" transform="translate(-4.685 -4.667)"/><path class="c" d="M14.381,22.182a16.794,16.794,0,0,1-8.7-2.225C3.3,18.5,1.991,16.529,1.991,14.43a6.167,6.167,0,0,1,2.641-4.79,14.35,14.35,0,0,1,6.422-2.672,3.147,3.147,0,0,0,1.317-2.086,5.123,5.123,0,0,0-1.04-3.328.313.313,0,0,1,.372-.479l1.166.5.309-.813a.305.305,0,0,1,.284-.2.312.312,0,0,1,.3.183l.422.926L14.873.181A.321.321,0,0,1,15.219,0a.315.315,0,0,1,.252.3c.006.208.013.422.019.637.069,2.382.145,4.846,2.262,6.037a14.353,14.353,0,0,1,6.4,2.685,6.146,6.146,0,0,1,2.622,4.771c0,2.1-1.311,4.065-3.687,5.527A16.834,16.834,0,0,1,14.381,22.182Zm-2-20.135a5.057,5.057,0,0,1,.618,2.918,3.78,3.78,0,0,1-1.626,2.559.274.274,0,0,1-.132.057c-5.073.851-8.615,3.668-8.615,6.85,0,3.926,5.275,7.121,11.76,7.121s11.76-3.2,11.76-7.121c0-3.164-3.517-5.974-8.546-6.844a.416.416,0,0,1-.095-.032c-2.256-1.229-2.533-3.643-2.615-5.911l-.422.908a.31.31,0,0,1-.284.183h0a.314.314,0,0,1-.284-.183L13.5,1.694l-.158.41a.313.313,0,0,1-.17.176.331.331,0,0,1-.246,0Z"/><ellipse class="b" cx="9.586" cy="7.436" rx="9.586" ry="7.436" transform="translate(4.795 6.994)"/><path class="c" d="M51.392,121.484a11.371,11.371,0,0,1-6.97-2.244,6.642,6.642,0,0,1,0-11.016,11.949,11.949,0,0,1,13.94,0,6.642,6.642,0,0,1,0,11.016A11.371,11.371,0,0,1,51.392,121.484Zm0-14.873c-5.111,0-9.27,3.2-9.27,7.121s4.159,7.121,9.27,7.121,9.27-3.2,9.27-7.121S56.5,106.611,51.392,106.611Z" transform="translate(-37.011 -99.302)"/><ellipse class="b" cx="5.823" cy="7.436" rx="5.823" ry="7.436" transform="translate(8.558 6.994)"/><path class="c" d="M107.329,121.484c-3.384,0-6.138-3.479-6.138-7.752s2.754-7.752,6.138-7.752,6.138,3.479,6.138,7.752S110.713,121.484,107.329,121.484Zm0-14.873c-3.038,0-5.508,3.2-5.508,7.121s2.47,7.121,5.508,7.121,5.508-3.2,5.508-7.121S110.367,106.611,107.329,106.611Z" transform="translate(-92.948 -99.302)"/><ellipse class="b" cx="2.054" cy="7.436" rx="2.054" ry="7.436" transform="translate(12.326 6.994)"/><path class="c" d="M163.361,121.484c-1.557,0-2.37-3.9-2.37-7.752s.813-7.752,2.37-7.752,2.37,3.9,2.37,7.752S164.917,121.484,163.361,121.484Zm0-14.873c-.284,0-.75.51-1.147,1.947a20.434,20.434,0,0,0-.592,5.174,20.151,20.151,0,0,0,.592,5.174c.4,1.437.87,1.947,1.147,1.947s.75-.51,1.147-1.947a20.433,20.433,0,0,0,.592-5.174,20.151,20.151,0,0,0-.592-5.174C164.111,107.122,163.644,106.611,163.361,106.611Z" transform="translate(-148.98 -99.302)"/><ellipse class="d" cx="10.953" cy="8.048" rx="10.953" ry="8.048" transform="translate(9.654 13.725)"/><path class="c" d="M129.859,229.507a13.43,13.43,0,0,1-7.934-2.42,6.964,6.964,0,0,1,0-11.886,14.217,14.217,0,0,1,15.869,0,6.964,6.964,0,0,1,0,11.886A13.43,13.43,0,0,1,129.859,229.507Zm0-16.1c-5.867,0-10.638,3.466-10.638,7.733s4.771,7.733,10.638,7.733,10.638-3.466,10.638-7.733S135.726,213.411,129.859,213.411Z" transform="translate(-109.252 -199.372)"/><ellipse class="d" cx="8.275" cy="5.647" rx="8.275" ry="5.647" transform="translate(12.333 16.126)"/><path class="c" d="M171.086,264.116a10.635,10.635,0,0,1-5.974-1.7,4.713,4.713,0,0,1,0-8.344,11.375,11.375,0,0,1,11.949,0,4.713,4.713,0,0,1,0,8.344A10.635,10.635,0,0,1,171.086,264.116Zm0-11.293c-4.443,0-8.054,2.433-8.054,5.426s3.611,5.426,8.054,5.426,8.054-2.433,8.054-5.426S175.529,252.822,171.086,252.822Z" transform="translate(-150.479 -236.476)"/><ellipse class="d" cx="5.603" cy="3.252" rx="5.603" ry="3.252" transform="translate(15.005 18.521)"/><path class="c" d="M210.814,297.326a8.194,8.194,0,0,1-4.071-.983,2.644,2.644,0,0,1,0-4.979,8.921,8.921,0,0,1,8.142,0,2.644,2.644,0,0,1,0,4.979A8.194,8.194,0,0,1,210.814,297.326Zm0-6.5c-2.968,0-5.382,1.361-5.382,3.031s2.414,3.031,5.382,3.031,5.382-1.361,5.382-3.031S213.782,290.822,210.814,290.822Z" transform="translate(-190.207 -272.081)"/><path class="d" d="M262.118,315.736a.976.976,0,0,0,.227-.586c0-.813-1.134-1.468-2.527-1.468s-2.527.655-2.527,1.468a.948.948,0,0,0,.227.586Z" transform="translate(-239.211 -293.913)"/><path class="c" d="M258.946,312.677h-4.815l-.069-.082a1.154,1.154,0,0,1-.271-.725c0-.945,1.21-1.689,2.748-1.689s2.748.744,2.748,1.689a1.217,1.217,0,0,1-.271.718Zm-4.594-.441h4.374a.662.662,0,0,0,.12-.366c0-.674-1.059-1.248-2.307-1.248s-2.307.573-2.307,1.248A.662.662,0,0,0,254.352,312.236Z" transform="translate(-235.931 -290.633)"/><path class="d" d="M278.206,325.012a.279.279,0,0,0,.12-.208c0-.29-.611-.523-1.368-.523s-1.368.233-1.368.523a.279.279,0,0,0,.12.208Z" transform="translate(-256.357 -303.845)"/><path class="c" d="M275.009,321.953h-2.653l-.063-.05a.5.5,0,0,1-.2-.378c0-.51.826-.744,1.588-.744s1.588.233,1.588.744a.479.479,0,0,1-.2.378Zm-2.47-.441h2.281a1.677,1.677,0,0,0-1.141-.29A1.654,1.654,0,0,0,272.538,321.512Z" transform="translate(-253.078 -300.565)"/><path class="d" d="M262.118,358.981a.453.453,0,0,1,.227.328c0,.454-1.134.826-2.527.826s-2.527-.372-2.527-.826a.443.443,0,0,1,.227-.328Z" transform="translate(-239.211 -336.358)"/><path class="c" d="M256.539,357.075c-1.368,0-2.748-.359-2.748-1.046a.665.665,0,0,1,.315-.5l.057-.044h4.745l.057.044a.62.62,0,0,1,.315.5C259.286,356.716,257.906,357.075,256.539,357.075Zm-2.225-1.153c-.063.057-.082.095-.082.107,0,.183.788.605,2.307.605s2.307-.422,2.307-.605a.259.259,0,0,0-.082-.107Z" transform="translate(-235.931 -333.078)"/></g></g></svg>