<svg xmlns="http://www.w3.org/2000/svg" width="59" height="58" viewBox="0 0 59 58"><defs><style>.a{fill:#054aa5;opacity:0.17;}.b{fill:#734119;}.c{fill:#fab991;}.d{fill:#e13741;}</style></defs><g transform="translate(-21 -133)"><ellipse class="a" cx="29.5" cy="29" rx="29.5" ry="29" transform="translate(21 133)"/><g transform="translate(44.585 54.788) rotate(14)"><path class="b" d="M39.607,95.422l-3.984-4.1A10.9,10.9,0,0,0,27.811,88H25.943A10.084,10.084,0,0,0,16,98.22v3.407a10.084,10.084,0,0,0,9.943,10.22H43.618a5.6,5.6,0,0,0,5.524-5.678v-3.407a5.6,5.6,0,0,0-5.524-5.678h-.106a5.449,5.449,0,0,1-3.906-1.663Z" transform="translate(0 0)"/><path class="c" d="M39.607,95.422l-3.984-4.1A10.9,10.9,0,0,0,27.811,88H25.943a10.224,10.224,0,0,0,0,20.441H43.618a5.68,5.68,0,0,0,0-11.356h-.106a5.449,5.449,0,0,1-3.906-1.663Z" transform="translate(0 0)"/><path class="d" d="M55.7,135.9a7.953,7.953,0,0,1,0-15.9h1.86a8.606,8.606,0,0,1,6.222,2.661l3.967,4.1a7.53,7.53,0,0,0,5.445,2.328H73.3a3.409,3.409,0,0,1,0,6.814Z" transform="translate(-29.729 -29.728)"/><circle class="c" cx="2.5" cy="2.5" r="2.5" transform="translate(24.607 96.114)"/><circle class="d" cx="1.5" cy="1.5" r="1.5" transform="translate(25.593 97.105)"/></g><g transform="translate(44.585 54.788) rotate(14)"><path class="b" d="M39.607,95.422l-3.984-4.1A10.9,10.9,0,0,0,27.811,88H25.943A10.084,10.084,0,0,0,16,98.22v3.407a10.084,10.084,0,0,0,9.943,10.22H43.618a5.6,5.6,0,0,0,5.524-5.678v-3.407a5.6,5.6,0,0,0-5.524-5.678h-.106a5.449,5.449,0,0,1-3.906-1.663Z" transform="translate(0 0)"/><path class="c" d="M39.607,95.422l-3.984-4.1A10.9,10.9,0,0,0,27.811,88H25.943a10.224,10.224,0,0,0,0,20.441H43.618a5.68,5.68,0,0,0,0-11.356h-.106a5.449,5.449,0,0,1-3.906-1.663Z" transform="translate(0 0)"/><path class="d" d="M55.7,135.9a7.953,7.953,0,0,1,0-15.9h1.86a8.606,8.606,0,0,1,6.222,2.661l3.967,4.1a7.53,7.53,0,0,0,5.445,2.328H73.3a3.409,3.409,0,0,1,0,6.814Z" transform="translate(-29.729 -29.728)"/><circle class="c" cx="2.5" cy="2.5" r="2.5" transform="translate(24.607 96.114)"/><circle class="d" cx="1.5" cy="1.5" r="1.5" transform="translate(25.593 97.105)"/></g></g></svg>