<svg xmlns="http://www.w3.org/2000/svg" width="59" height="58" viewBox="0 0 59 58"><defs><style>.a{fill:#054aa5;opacity:0.17;}.b{fill:#fff;}.c{fill:#e8c89e;}.d{fill:#e9e9e9;}.e{fill:#faf5e5;}</style></defs><g transform="translate(-21 -133)"><path class="a" d="M29.5,0A29.253,29.253,0,0,1,59,29,29.253,29.253,0,0,1,29.5,58,29.253,29.253,0,0,1,0,29,29.253,29.253,0,0,1,29.5,0Z" transform="translate(21 133)"/><g transform="translate(32.716 140.998)"><path class="b" d="M25.314,28.579c0-4.459-8.435-8.074-16.675-8.074-11.41,0-11.435,16.128-.567,16.128.191,0,.38.02.567.02C16.879,36.653,25.314,33.039,25.314,28.579Z" transform="translate(0 -6.029)"/><path class="c" d="M34.908,5.505c-3.239,0-6.03,4.45-7.316,10.042,5,1.393,8.812,4.007,8.812,7,0,2.566-2.795,4.85-6.736,6.329,4.626,3.941,13.295,1.838,13.295-6.133,0-.191.02-.38.02-.567C42.983,13.94,39.368,5.505,34.908,5.505Z" transform="translate(-11.09)"/><path class="d" d="M3.937,30.689H3.907a.6.6,0,0,1-.569-.626,6.351,6.351,0,0,1,2.638-4.944.6.6,0,1,1,.69.978A5.158,5.158,0,0,0,4.534,30.12.6.6,0,0,1,3.937,30.689Z" transform="translate(-1.342 -7.839)"/><path class="d" d="M10.922,24.619a.6.6,0,0,1-.161-1.173,8.016,8.016,0,0,1,2.165-.285.6.6,0,1,1,0,1.2,6.812,6.812,0,0,0-1.842.24A.6.6,0,0,1,10.922,24.619Z" transform="translate(-4.15 -7.096)"/><path class="e" d="M46,17.689a.6.6,0,0,1-.574-.428,10.542,10.542,0,0,0-1.3-2.832.6.6,0,0,1,1-.661,11.734,11.734,0,0,1,1.449,3.153.6.6,0,0,1-.4.743A.576.576,0,0,1,46,17.689Z" transform="translate(-17.696 -3.213)"/><path class="e" d="M40.718,10.84a.6.6,0,0,1-.391-.145,5.917,5.917,0,0,0-1.606-1.029.6.6,0,0,1,.4-1.126,6.911,6.911,0,0,1,1.984,1.25.6.6,0,0,1,.062.843A.592.592,0,0,1,40.718,10.84Z" transform="translate(-15.404 -1.206)"/></g></g></svg>